{"title":"Nicki Minaj - Pound The Alarm [Explicit] 720p [Sbyky]","uid":8741649,"size":96954466,"categoryP":"video","categoryS":"music_videos","magnet":"?xt=urn:btih:d29c1eae6f400d7445c9c88077f9d071d252b85a&amp;dn=Nicki+Minaj+-+Pound+The+Alarm+%5BExplicit%5D+720p+%5BSbyky%5D&amp;tr=udp%3A%2F%2Ftracker.openbittorrent.com%3A80&amp;tr=udp%3A%2F%2Fopen.demonii.com%3A1337&amp;tr=udp%3A%2F%2Ftracker.coppersurfer.tk%3A6969&amp;tr=udp%3A%2F%2Fexodus.desync.com%3A6969","seeders":0,"leechers":1,"uploader":"Sbyky","files":-1,"time":1374805426,"description":"\n\nGeneral\nComplete name                            : Nicki Minaj - Pound The Alarm [Explicit] 720p [Sbyky].MP4\nFormat                                   : MPEG-4\nFormat profile                           : Base Media / Version 2\nCodec ID                                 : mp42\nFile size                                : 92.5 MiB\nDuration                                 : 4mn 13s\nOverall bit rate mode                    : Variable\nOverall bit rate                         : 3 060 Kbps\nEncoded date                             : UTC 2012-07-30 06:12:27\nTagged date                              : UTC 2012-07-30 06:12:27\n\nVideo\nID                                       : 1\nFormat                                   : AVC\nFormat/Info                              : Advanced Video Codec\nFormat profile                           : &lt;a class=&quot;__cf_email__&quot; href=&quot;/cdn-cgi/l/email-protection&quot; data-cfemail=&quot;c48cada3ac8488f7eaf5&quot;&gt;[email&amp;#160;protected]&lt;/a&gt;&lt;script cf-hash='f9e31' type=&quot;text/javascript&quot;&gt;\n/* &lt;![CDATA[ */!function(){try{var t=&quot;currentScript&quot;in document?document.currentScript:function(){for(var t=document.getElementsByTagName(&quot;script&quot;),e=t.length;e--;)if(t[e].getAttribute(&quot;cf-hash&quot;))return t[e]}();if(t&amp;&amp;t.previousSibling){var e,r,n,i,c=t.previousSibling,a=c.getAttribute(&quot;data-cfemail&quot;);if(a){for(e=&quot;&quot;,r=parseInt(a.substr(0,2),16),n=2;a.length-n;n+=2)i=parseInt(a.substr(n,2),16)^r,e+=String.fromCharCode(i);e=document.createTextNode(e),c.parentNode.replaceChild(e,c)}}}catch(u){}}();/* ]]&gt; */&lt;/script&gt;\nFormat settings, CABAC                   : Yes\nFormat settings, ReFrames                : 1 frame\nCodec ID                                 : avc1\nCodec ID/Info                            : Advanced Video Coding\nDuration                                 : 4mn 13s\nBit rate                                 : 2 865 Kbps\nMaximum bit rate                         : 9 945 Kbps\nWidth                                    : 1 280 pixels\nHeight                                   : 720 pixels\nDisplay aspect ratio                     : 16:9\nFrame rate mode                          : Constant\nFrame rate                               : 24.000 fps\nColor space                              : YUV\nChroma subsampling                       : 4:2:0\nBit depth                                : 8 bits\nScan type                                : Progressive\nBits/(Pixel*Frame)                       : 0.130\nStream size                              : 86.6 MiB (94%)\nTagged date                              : UTC 2012-07-30 06:12:27\n\nAudio\nID                                       : 2\nFormat                                   : AAC\nFormat/Info                              : Advanced Audio Codec\nFormat profile                           : LC\nCodec ID                                 : 40\nDuration                                 : 4mn 13s\nBit rate mode                            : Variable\nBit rate                                 : 192 Kbps\nMaximum bit rate                         : 201 Kbps\nChannel(s)                               : 2 channels\nChannel positions                        : Front: L R\nSampling rate                            : 44.1 KHz\nCompression mode                         : Lossy\nStream size                              : 5.80 MiB (6%)\nTitle                                    : IsoMedia File Produced by Google, 5-11-2011\nEncoded date                             : UTC 2012-07-30 06:12:27\nTagged date                              : UTC 2012-07-30 06:12:27\n\nShared By Sbyky\n[IMG]http://www.shotpix.com/photos/20130722137449689157289.gif[/IMG]\n[IMG]http://www.shotpix.com/photos/20130722137449694197310.gif[/IMG]","torrent":{"xt":"urn:btih:d29c1eae6f400d7445c9c88077f9d071d252b85a","amp;dn":"Nicki+Minaj+-+Pound+The+Alarm+%5BExplicit%5D+720p+%5BSbyky%5D","amp;tr":["udp%3A%2F%2Ftracker.openbittorrent.com%3A80","udp%3A%2F%2Fopen.demonii.com%3A1337","udp%3A%2F%2Ftracker.coppersurfer.tk%3A6969","udp%3A%2F%2Fexodus.desync.com%3A6969"],"infoHash":"d29c1eae6f400d7445c9c88077f9d071d252b85a","infoHashBuffer":{"type":"Buffer","data":[210,156,30,174,111,64,13,116,69,201,200,128,119,249,208,113,210,82,184,90]},"announce":[],"urlList":[]}}